{
	"asset":{
		"generator":"Khronos glTF Blender I/O v3.5.30",
		"version":"2.0"
	},
	"scene":0,
	"scenes":[
		{
			"name":"Scene",
			"nodes":[
				0
			]
		}
	],
	"nodes":[
		{
			"mesh":0,
			"name":"Plane",
			"rotation":[
				0.7071068286895752,
				0,
				0,
				0.7071068286895752
			]
		}
	],
	"materials":[
		{
			"doubleSided":true,
			"name":"Material.001",
			"pbrMetallicRoughness":{
				"baseColorFactor":[
					0,
					0.019571999087929726,
					1,
					1
				],
				"metallicFactor":0,
				"roughnessFactor":0.5
			}
		}
	],
	"meshes":[
		{
			"name":"Plane",
			"primitives":[
				{
					"attributes":{
						"POSITION":0,
						"TEXCOORD_0":1,
						"NORMAL":2
					},
					"indices":3,
					"material":0
				}
			]
		}
	],
	"accessors":[
		{
			"bufferView":0,
			"componentType":5126,
			"count":10000,
			"max":[
				-0.2265619933605194,
				-0.2265619933605194,
				0
			],
			"min":[
				-1,
				-1,
				0
			],
			"type":"VEC3"
		},
		{
			"bufferView":1,
			"componentType":5126,
			"count":10000,
			"type":"VEC2"
		},
		{
			"bufferView":2,
			"componentType":5126,
			"count":10000,
			"type":"VEC3"
		},
		{
			"bufferView":3,
			"componentType":5123,
			"count":58806,
			"type":"SCALAR"
		}
	],
	"bufferViews":[
		{
			"buffer":0,
			"byteLength":120000,
			"byteOffset":0,
			"target":34962
		},
		{
			"buffer":0,
			"byteLength":80000,
			"byteOffset":120000,
			"target":34962
		},
		{
			"buffer":0,
			"byteLength":120000,
			"byteOffset":200000,
			"target":34962
		},
		{
			"buffer":0,
			"byteLength":117612,
			"byteOffset":320000,
			"target":34963
		}
	],
	"buffers":[
		{
			"byteLength":437612,
			"uri":"data:application/octet-stream;base64,"
		}
	]
}
